<svg xmlns="http://www.w3.org/2000/svg" xmlns:xlink="http://www.w3.org/1999/xlink" contentStyleType="text/css" data-diagram-type="SEQUENCE" height="712px" preserveAspectRatio="none" style="width:1005px;height:712px;background:#FFFFFF;" version="1.1" viewBox="0 0 1005 712" width="1005px" zoomAndPan="magnify"><title>Pre-AJAX Web Interaction</title><defs/><g><text fill="#000000" font-family="sans-serif" font-size="14" font-weight="bold" lengthAdjust="spacing" textLength="178.1633" x="415.3991" y="29.9659">Pre-AJAX Web Interaction</text><g><title>Browser</title><rect fill="#FFFFFF" height="116.118" style="stroke:#181818;stroke-width:1;" width="10" x="295.9878" y="287.6659"/></g><g><title>Browser</title><rect fill="#FFFFFF" height="116.118" style="stroke:#181818;stroke-width:1;" width="10" x="295.9878" y="443.49"/></g><g><title>Browser</title><rect fill="#FFFFFF" height="20" style="stroke:#181818;stroke-width:1;" width="10" x="295.9878" y="599.314"/></g><rect fill="none" height="159.5301" style="stroke:#000000;stroke-width:1.5;" width="989.9616" x="10" y="141.1358"/><rect fill="none" height="141.8241" style="stroke:#000000;stroke-width:1.5;" width="989.9616" x="10" y="314.6659"/><rect fill="none" height="141.8241" style="stroke:#000000;stroke-width:1.5;" width="989.9616" x="10" y="470.49"/><g><title>User</title><rect fill="#000000" fill-opacity="0.00000" height="505.1782" width="8" x="34.3089" y="124.1358"/><line style="stroke:#181818;stroke-width:0.5;stroke-dasharray:5,5;" x1="38" x2="38" y1="124.1358" y2="629.314"/></g><g><title>Browser</title><rect fill="#000000" fill-opacity="0.00000" height="505.1782" width="8" x="296.9878" y="124.1358"/><line style="stroke:#181818;stroke-width:0.5;stroke-dasharray:5,5;" x1="300.6179" x2="300.6179" y1="124.1358" y2="629.314"/></g><g><title>Host</title><rect fill="#000000" fill-opacity="0.00000" height="505.1782" width="8" x="763.6596" y="124.1358"/><line style="stroke:#181818;stroke-width:0.5;stroke-dasharray:5,5;" x1="767.3577" x2="767.3577" y1="124.1358" y2="629.314"/></g><g class="participant participant-head" data-participant="u"><text fill="#000000" font-family="sans-serif" font-size="14" lengthAdjust="spacing" textLength="30.6179" x="20" y="120.0339">User</text><ellipse cx="38.3089" cy="53.5679" fill="#E2E2F0" rx="8" ry="8" style="stroke:#181818;stroke-width:0.5;"/><path d="M38.3089,61.5679 L38.3089,88.5679 M25.3089,69.5679 L51.3089,69.5679 M38.3089,88.5679 L25.3089,103.5679 M38.3089,88.5679 L51.3089,103.5679" fill="none" style="stroke:#181818;stroke-width:0.5;"/></g><g class="participant participant-tail" data-participant="u"><text fill="#000000" font-family="sans-serif" font-size="14" lengthAdjust="spacing" textLength="30.6179" x="20" y="643.28">User</text><ellipse cx="38.3089" cy="655.882" fill="#E2E2F0" rx="8" ry="8" style="stroke:#181818;stroke-width:0.5;"/><path d="M38.3089,663.882 L38.3089,690.882 M25.3089,671.882 L51.3089,671.882 M38.3089,690.882 L25.3089,705.882 M38.3089,690.882 L51.3089,705.882" fill="none" style="stroke:#181818;stroke-width:0.5;"/></g><g class="participant participant-head" data-participant="b"><rect fill="#E2E2F0" height="33.0679" rx="2.5" ry="2.5" style="stroke:#181818;stroke-width:0.5;" width="68.7398" x="266.6179" y="90.0679"/><text fill="#000000" font-family="sans-serif" font-size="14" lengthAdjust="spacing" textLength="54.7398" x="273.6179" y="112.0339">Browser</text></g><g class="participant participant-tail" data-participant="b"><rect fill="#E2E2F0" height="33.0679" rx="2.5" ry="2.5" style="stroke:#181818;stroke-width:0.5;" width="68.7398" x="266.6179" y="628.314"/><text fill="#000000" font-family="sans-serif" font-size="14" lengthAdjust="spacing" textLength="54.7398" x="273.6179" y="650.28">Browser</text></g><g class="participant participant-head" data-participant="h"><rect fill="#E2E2F0" height="33.0679" rx="2.5" ry="2.5" style="stroke:#181818;stroke-width:0.5;" width="44.6039" x="745.3577" y="90.0679"/><text fill="#000000" font-family="sans-serif" font-size="14" lengthAdjust="spacing" textLength="30.6039" x="752.3577" y="112.0339">Host</text></g><g class="participant participant-tail" data-participant="h"><rect fill="#E2E2F0" height="33.0679" rx="2.5" ry="2.5" style="stroke:#181818;stroke-width:0.5;" width="44.6039" x="745.3577" y="628.314"/><text fill="#000000" font-family="sans-serif" font-size="14" lengthAdjust="spacing" textLength="30.6039" x="752.3577" y="650.28">Host</text></g><g><title>Browser</title><rect fill="#FFFFFF" height="116.118" style="stroke:#181818;stroke-width:1;" width="10" x="295.9878" y="287.6659"/></g><g><title>Browser</title><rect fill="#FFFFFF" height="116.118" style="stroke:#181818;stroke-width:1;" width="10" x="295.9878" y="443.49"/></g><g><title>Browser</title><rect fill="#FFFFFF" height="20" style="stroke:#181818;stroke-width:1;" width="10" x="295.9878" y="599.314"/></g><path d="M10,141.1358 L127.3061,141.1358 L127.3061,150.8419 L117.3061,160.8419 L10,160.8419 L10,141.1358" fill="#EEEEEE" style="stroke:#000000;stroke-width:1.5;"/><rect fill="none" height="159.5301" style="stroke:#000000;stroke-width:1.5;" width="989.9616" x="10" y="141.1358"/><text fill="#000000" font-family="sans-serif" font-size="13" font-weight="bold" lengthAdjust="spacing" textLength="72.3061" x="25" y="156.0328">1. Enter Url</text><g class="message" data-participant-1="u" data-participant-2="b"><polygon fill="#181818" points="288.9878,180.5479,298.9878,184.5479,288.9878,188.5479,292.9878,184.5479" style="stroke:#181818;stroke-width:1;"/><line style="stroke:#181818;stroke-width:1;" x1="38.3089" x2="294.9878" y1="184.5479" y2="184.5479"/><text fill="#000000" font-family="sans-serif" font-size="13" lengthAdjust="spacing" textLength="52.897" x="45.3089" y="178.7389">enter url</text></g><g class="message" data-participant-1="b" data-participant-2="h"><polygon fill="#181818" points="755.6596,212.2539,765.6596,216.2539,755.6596,220.2539,759.6596,216.2539" style="stroke:#181818;stroke-width:1;"/><line style="stroke:#181818;stroke-width:1;" x1="300.9878" x2="761.6596" y1="216.2539" y2="216.2539"/><text fill="#000000" font-family="sans-serif" font-size="13" lengthAdjust="spacing" textLength="82.3161" x="307.9878" y="210.4449">HTTP request</text></g><g class="message" data-participant-1="h" data-participant-2="b"><polygon fill="#181818" points="311.9878,243.9599,301.9878,247.9599,311.9878,251.9599,307.9878,247.9599" style="stroke:#181818;stroke-width:1;"/><line style="stroke:#181818;stroke-width:1;stroke-dasharray:2,2;" x1="305.9878" x2="766.6596" y1="247.9599" y2="247.9599"/><text fill="#000000" font-family="sans-serif" font-size="13" lengthAdjust="spacing" textLength="60.3331" x="317.9878" y="242.1509">Full HTML</text></g><g class="message" data-participant-1="b" data-participant-2="b"><line style="stroke:#181818;stroke-width:1;" x1="300.9878" x2="347.9878" y1="274.6659" y2="274.6659"/><line style="stroke:#181818;stroke-width:1;" x1="347.9878" x2="347.9878" y1="274.6659" y2="287.6659"/><line style="stroke:#181818;stroke-width:1;" x1="306.9878" x2="347.9878" y1="287.6659" y2="287.6659"/><polygon fill="#181818" points="316.9878,283.6659,306.9878,287.6659,316.9878,291.6659,312.9878,287.6659" style="stroke:#181818;stroke-width:1;"/><text fill="#000000" font-family="sans-serif" font-size="13" lengthAdjust="spacing" textLength="105.1441" x="312.9878" y="268.8569">render Full HTML</text></g><path d="M10,314.6659 L174.5481,314.6659 L174.5481,324.3719 L164.5481,334.3719 L10,334.3719 L10,314.6659" fill="#EEEEEE" style="stroke:#000000;stroke-width:1.5;"/><rect fill="none" height="141.8241" style="stroke:#000000;stroke-width:1.5;" width="989.9616" x="10" y="314.6659"/><text fill="#000000" font-family="sans-serif" font-size="13" font-weight="bold" lengthAdjust="spacing" textLength="119.5481" x="25" y="329.5629">2. User Navigation</text><g class="message" data-participant-1="u" data-participant-2="b"><polygon fill="#181818" points="283.9878,354.0779,293.9878,358.0779,283.9878,362.0779,287.9878,358.0779" style="stroke:#181818;stroke-width:1;"/><line style="stroke:#181818;stroke-width:1;" x1="38.3089" x2="289.9878" y1="358.0779" y2="358.0779"/><text fill="#000000" font-family="sans-serif" font-size="13" lengthAdjust="spacing" textLength="51.194" x="45.3089" y="352.2689">click link</text></g><g class="message" data-participant-1="b" data-participant-2="h"><polygon fill="#181818" points="755.6596,368.0779,765.6596,372.0779,755.6596,376.0779,759.6596,372.0779" style="stroke:#181818;stroke-width:1;"/><line style="stroke:#181818;stroke-width:1;" x1="305.9878" x2="761.6596" y1="372.0779" y2="372.0779"/></g><g class="message" data-participant-1="h" data-participant-2="b"><polygon fill="#181818" points="311.9878,399.784,301.9878,403.784,311.9878,407.784,307.9878,403.784" style="stroke:#181818;stroke-width:1;"/><line style="stroke:#181818;stroke-width:1;stroke-dasharray:2,2;" x1="305.9878" x2="766.6596" y1="403.784" y2="403.784"/><text fill="#000000" font-family="sans-serif" font-size="13" lengthAdjust="spacing" textLength="60.3331" x="317.9878" y="397.975">Full HTML</text></g><g class="message" data-participant-1="b" data-participant-2="b"><line style="stroke:#181818;stroke-width:1;" x1="300.9878" x2="347.9878" y1="430.49" y2="430.49"/><line style="stroke:#181818;stroke-width:1;" x1="347.9878" x2="347.9878" y1="430.49" y2="443.49"/><line style="stroke:#181818;stroke-width:1;" x1="306.9878" x2="347.9878" y1="443.49" y2="443.49"/><polygon fill="#181818" points="316.9878,439.49,306.9878,443.49,316.9878,447.49,312.9878,443.49" style="stroke:#181818;stroke-width:1;"/><text fill="#000000" font-family="sans-serif" font-size="13" lengthAdjust="spacing" textLength="105.1441" x="312.9878" y="424.681">render Full HTML</text></g><path d="M10,470.49 L138.5901,470.49 L138.5901,480.196 L128.5901,490.196 L10,490.196 L10,470.49" fill="#EEEEEE" style="stroke:#000000;stroke-width:1.5;"/><rect fill="none" height="141.8241" style="stroke:#000000;stroke-width:1.5;" width="989.9616" x="10" y="470.49"/><text fill="#000000" font-family="sans-serif" font-size="13" font-weight="bold" lengthAdjust="spacing" textLength="83.5901" x="25" y="485.387">3. User Input</text><g class="message" data-participant-1="u" data-participant-2="b"><polygon fill="#181818" points="283.9878,509.902,293.9878,513.902,283.9878,517.902,287.9878,513.902" style="stroke:#181818;stroke-width:1;"/><line style="stroke:#181818;stroke-width:1;" x1="38.3089" x2="289.9878" y1="513.902" y2="513.902"/><text fill="#000000" font-family="sans-serif" font-size="13" lengthAdjust="spacing" textLength="75.6991" x="45.3089" y="508.093">form submit</text></g><g class="message" data-participant-1="b" data-participant-2="h"><polygon fill="#181818" points="755.6596,523.902,765.6596,527.902,755.6596,531.902,759.6596,527.902" style="stroke:#181818;stroke-width:1;"/><line style="stroke:#181818;stroke-width:1;" x1="305.9878" x2="761.6596" y1="527.902" y2="527.902"/></g><g class="message" data-participant-1="h" data-participant-2="b"><polygon fill="#181818" points="311.9878,555.608,301.9878,559.608,311.9878,563.608,307.9878,559.608" style="stroke:#181818;stroke-width:1;"/><line style="stroke:#181818;stroke-width:1;stroke-dasharray:2,2;" x1="305.9878" x2="766.6596" y1="559.608" y2="559.608"/><text fill="#000000" font-family="sans-serif" font-size="13" lengthAdjust="spacing" textLength="146.8871" x="317.9878" y="553.799">Updated HTML/Redirect</text></g><g class="message" data-participant-1="b" data-participant-2="b"><line style="stroke:#181818;stroke-width:1;" x1="300.9878" x2="347.9878" y1="586.314" y2="586.314"/><line style="stroke:#181818;stroke-width:1;" x1="347.9878" x2="347.9878" y1="586.314" y2="599.314"/><line style="stroke:#181818;stroke-width:1;" x1="306.9878" x2="347.9878" y1="599.314" y2="599.314"/><polygon fill="#181818" points="316.9878,595.314,306.9878,599.314,316.9878,603.314,312.9878,599.314" style="stroke:#181818;stroke-width:1;"/><text fill="#000000" font-family="sans-serif" font-size="13" lengthAdjust="spacing" textLength="105.1441" x="312.9878" y="580.505">render Full HTML</text></g><!--SRC=[dOzDJyCm38Rl-HM-SUewngr2auO4sX2W2cs2QpvC6orDWkEClq_QJTeG9pZQxyTZN_NCCJLr7Ptqd0Stqs6e4tvcz1ehOsL7SX1isI6qXDNgSVKERwXWunb9QhR1YxItFifYX5OIMsrZAMkbCTPti9ZFXIZ6GB1BI20JP17FFhYZy7KIr0zX7HAFsrw8ZaAES3s3-n4BEt8YLqlLu3JcCgfgsJVhxRO56gzFBDHjLVNDGtOErjldfz6X6a9lIkAy7LyuICR2Bj89j9WTRtsH1zl9wSS9fvtLUt3MxoVUBuJ1Yxe_y6vEl8sFcO-eZq03fAm6ovSis4LJqcOggr_HM4BD_m1V9hu1]--></g></svg>