<svg xmlns="http://www.w3.org/2000/svg" xmlns:xlink="http://www.w3.org/1999/xlink" contentStyleType="text/css" data-diagram-type="DESCRIPTION" height="476px" preserveAspectRatio="none" style="width:388px;height:476px;background:#FFFFFF;" version="1.1" viewBox="0 0 388 476" width="388px" zoomAndPan="magnify"><title>Compartmentalized Backend and Frontend</title><defs/><g><g class="title" data-source-line="1"><text fill="#000000" font-family="sans-serif" font-size="14" font-weight="bold" lengthAdjust="spacing" textLength="300.3268" x="36.9892" y="24.9659">Compartmentalized Backend and Frontend</text></g><!--cluster Backend--><g class="cluster" data-entity="Backend" data-source-line="3" data-uid="ent0002" id="cluster_Backend"><path d="M8.5,46.6699 L69.4058,46.6699 A3.75,3.75 0 0 1 71.9058,49.1699 L78.9058,71.7378 L246.5,71.7378 A2.5,2.5 0 0 1 249,74.2378 L249,163.2399 A2.5,2.5 0 0 1 246.5,165.7399 L8.5,165.7399 A2.5,2.5 0 0 1 6,163.2399 L6,49.1699 A2.5,2.5 0 0 1 8.5,46.6699" fill="none" style="stroke:#000000;stroke-width:1.5;"/><line style="stroke:#000000;stroke-width:1.5;" x1="6" x2="78.9058" y1="71.7378" y2="71.7378"/><text fill="#000000" font-family="sans-serif" font-size="14" font-weight="bold" lengthAdjust="spacing" textLength="59.9058" x="10" y="63.6358">Backend</text></g><!--cluster Frontend--><g class="cluster" data-entity="Frontend" data-source-line="10" data-uid="ent0010" id="cluster_Frontend"><path d="M64.5,350.7399 L129.6758,350.7399 A3.75,3.75 0 0 1 132.1758,353.2399 L139.1758,375.8078 L313.5,375.8078 A2.5,2.5 0 0 1 316,378.3078 L316,467.3099 A2.5,2.5 0 0 1 313.5,469.8099 L64.5,469.8099 A2.5,2.5 0 0 1 62,467.3099 L62,353.2399 A2.5,2.5 0 0 1 64.5,350.7399" fill="none" style="stroke:#000000;stroke-width:1.5;"/><line style="stroke:#000000;stroke-width:1.5;" x1="62" x2="139.1758" y1="375.8078" y2="375.8078"/><text fill="#000000" font-family="sans-serif" font-size="14" font-weight="bold" lengthAdjust="spacing" textLength="64.1758" x="66" y="367.7058">Frontend</text></g><!--entity Endpoints Controller--><g class="entity" data-entity="Endpoints Controller" data-source-line="4" data-uid="ent0003" id="entity_Endpoints Controller"><rect fill="#F1F1F1" height="49.0679" rx="2.5" ry="2.5" style="stroke:#181818;stroke-width:0.5;" width="175.9675" x="30.02" y="92.6699"/><rect fill="#F1F1F1" height="10" style="stroke:#181818;stroke-width:0.5;" width="15" x="185.9875" y="97.6699"/><rect fill="#F1F1F1" height="2" style="stroke:#181818;stroke-width:0.5;" width="4" x="183.9875" y="99.6699"/><rect fill="#F1F1F1" height="2" style="stroke:#181818;stroke-width:0.5;" width="4" x="183.9875" y="103.6699"/><text fill="#000000" font-family="sans-serif" font-size="14" lengthAdjust="spacing" textLength="135.9675" x="45.02" y="127.6358">Endpoints Controller</text></g><!--entity Component Processor--><g class="entity" data-entity="Component Processor" data-source-line="11" data-uid="ent0011" id="entity_Component Processor"><rect fill="#F1F1F1" height="49.0679" rx="2.5" ry="2.5" style="stroke:#181818;stroke-width:0.5;" width="186.3835" x="85.81" y="396.7399"/><rect fill="#F1F1F1" height="10" style="stroke:#181818;stroke-width:0.5;" width="15" x="252.1935" y="401.7399"/><rect fill="#F1F1F1" height="2" style="stroke:#181818;stroke-width:0.5;" width="4" x="250.1935" y="403.7399"/><rect fill="#F1F1F1" height="2" style="stroke:#181818;stroke-width:0.5;" width="4" x="250.1935" y="407.7399"/><text fill="#000000" font-family="sans-serif" font-size="14" lengthAdjust="spacing" textLength="146.3835" x="100.81" y="431.7058">Component Processor</text></g><!--entity api1--><g class="entity" data-entity="api1" data-source-line="6" data-uid="ent0004" id="entity_api1"><ellipse cx="363" cy="233.7399" fill="#F1F1F1" rx="8" ry="8" style="stroke:#181818;stroke-width:0.5;"/><text fill="#000000" font-family="sans-serif" font-size="14" lengthAdjust="spacing" textLength="28.0839" x="348.9581" y="265.7058">api1</text></g><!--entity api2--><g class="entity" data-entity="api2" data-source-line="7" data-uid="ent0006" id="entity_api2"><ellipse cx="241" cy="233.7399" fill="#F1F1F1" rx="8" ry="8" style="stroke:#181818;stroke-width:0.5;"/><text fill="#000000" font-family="sans-serif" font-size="14" lengthAdjust="spacing" textLength="28.0839" x="226.9581" y="265.7058">api2</text></g><!--entity api3--><g class="entity" data-entity="api3" data-source-line="8" data-uid="ent0008" id="entity_api3"><ellipse cx="162" cy="233.7399" fill="#F1F1F1" rx="8" ry="8" style="stroke:#181818;stroke-width:0.5;"/><text fill="#000000" font-family="sans-serif" font-size="14" lengthAdjust="spacing" textLength="28.0839" x="147.9581" y="265.7058">api3</text></g><!--link Backend to api1--><g class="link" data-entity-1="Backend" data-entity-2="api1" data-source-line="6" data-uid="lnk5" id="link_Backend_api1"><path d="M249.0192,125.7364 C249.4311,126.1232 249.8568,126.5229 250.2957,126.935 C252.0514,128.5833 254.0186,130.4302 256.1645,132.4449 C264.7484,140.5036 276.1931,151.2474 288.4038,162.7099 C312.825,185.6349 340.31,211.4349 354.1,224.3799" fill="none" id="Backend-api1" style="stroke:#181818;stroke-width:1;"/></g><!--link Backend to api2--><g class="link" data-entity-1="Backend" data-entity-2="api2" data-source-line="7" data-uid="lnk7" id="link_Backend_api2"><path d="M241,165.9511 C241,166.3129 241,166.6753 241,167.0382 C241,168.4896 241,169.9484 241,171.4108 C241,174.3356 241,177.2745 241,180.1969 C241,186.0418 241,191.8205 241,197.2874 C241,208.2211 241,217.9074 241,224.3799" fill="none" id="Backend-api2" style="stroke:#181818;stroke-width:1;"/></g><!--link Backend to api3--><g class="link" data-entity-1="Backend" data-entity-2="api3" data-source-line="8" data-uid="lnk9" id="link_Backend_api3"><path d="M230.0549,165.9314 C229.8838,166.3583 229.71,166.7843 229.5337,167.2093 C228.8283,168.9092 228.0813,170.5925 227.2904,172.2472 C225.7086,175.5568 223.9513,178.7524 222,181.7399 C208.4,202.5799 183.81,219.5599 170.73,227.6399" fill="none" id="Backend-api3" style="stroke:#181818;stroke-width:1;"/></g><!--reverse link api1 to Frontend--><g class="link" data-entity-1="api1" data-entity-2="Frontend" data-source-line="14" data-uid="lnk13" id="link_api1_Frontend"><path d="M345.6954,244.7451 C328.5704,258.0151 317.1625,297.0024 306.0413,338.9474 C305.3462,341.569 304.6831,344.1782 304.0545,346.7664 C303.7403,348.0606 303.4346,374.4174 303.1379,375.7" fill="none" id="api1-backto-Frontend" style="stroke:#181818;stroke-width:1;"/><path d="M345.9866,233.8203 A9,9 0 0 0 356.347 247.1904" fill="none" style="stroke:#181818;stroke-width:1.5;"/></g><!--reverse link api1 to Frontend--><g class="link" data-entity-1="api1" data-entity-2="Frontend" data-source-line="15" data-uid="lnk15" id="link_api1_Frontend"><path d="M357.6476,252.7874 C352.3526,270.6474 342.3975,304.2349 330.765,343.4786 C327.8569,353.2896 325.0216,362.8548 322.3945,371.7174 C321.081,376.1487 319.8195,380.4043 318.627,384.4271 C318.0308,386.4385 317.4518,388.3917 316.8921,390.2796 C316.6123,391.2235 316.3373,392.1511 316.0675,393.0615" fill="none" id="api1-backto-Frontend-1" style="stroke:#181818;stroke-width:1;"/><path d="M351.5067,243.7472 A9,9 0 0 0 367.7234 248.555" fill="none" style="stroke:#181818;stroke-width:1.5;"/></g><!--reverse link api1 to Frontend--><g class="link" data-entity-1="api1" data-entity-2="Frontend" data-source-line="16" data-uid="lnk17" id="link_api1_Frontend"><path d="M375.3902,252.7039 C381.3052,270.7789 369.835,305.2699 356.1863,344.8824 C349.3619,364.6886 341.2153,383.3993 332.8698,397.2265 C328.6971,404.1401 324.4746,409.8328 320.3429,413.8312 C319.3099,414.8308 318.2827,415.7245 317.2632,416.5049 C317.0084,416.7 316.754,416.888 316.5002,417.0688 C316.3733,417.1593 316.2465,417.2479 316.1198,417.3347" fill="none" id="api1-backto-Frontend-2" style="stroke:#181818;stroke-width:1;"/><path d="M365.1996,248.7558 A9,9 0 0 0 381.2752 243.4951" fill="none" style="stroke:#181818;stroke-width:1.5;"/></g><!--reverse link api2 to Frontend--><g class="link" data-entity-1="api2" data-entity-2="Frontend" data-source-line="17" data-uid="lnk19" id="link_api2_Frontend"><path d="M236.7677,253.0104 C238.2677,269.8404 258.22,299.4099 270.5,334.7399 C272.09,339.3136 273.5933,344.0686 275.0403,348.8896 C275.2211,349.4922 275.4011,375.1638 275.5803,375.7682" fill="none" id="api2-backto-Frontend" style="stroke:#181818;stroke-width:1;"/><path d="M227.7294,246.8667 A9,9 0 0 0 244.5771 245.3651" fill="none" style="stroke:#181818;stroke-width:1.5;"/></g><!--reverse link api2 to Frontend--><g class="link" data-entity-1="api2" data-entity-2="Frontend" data-source-line="18" data-uid="lnk21" id="link_api2_Frontend"><path d="M258.1674,244.3216 C275.8774,257.2016 291.9,295.5999 305.5,334.7399 C311.86,353.0349 316.8325,374.2299 318.0925,390.9449 C318.7225,399.3024 318.4244,406.5399 316.9075,411.7349 C316.7179,412.3843 316.5092,413.0017 316.281,413.5855 C316.2239,413.7314 316.1656,413.8752 316.1061,414.0169 C316.0763,414.0878 316.0463,414.1581 316.0159,414.2279" fill="none" id="api2-backto-Frontend-1" style="stroke:#181818;stroke-width:1;"/><path d="M247.5951,247.0901 A9,9 0 0 0 257.5437 233.4107" fill="none" style="stroke:#181818;stroke-width:1.5;"/></g><!--reverse link api3 to Frontend--><g class="link" data-entity-1="api3" data-entity-2="Frontend" data-source-line="19" data-uid="lnk23" id="link_api3_Frontend"><path d="M178.5601,248.396 C197.6901,264.146 236.75,296.0299 277,326.7399 C281.81,330.4099 284.66,329.7099 288,334.7399 C290.6138,338.6799 292.8878,342.9199 294.8661,347.3295 C295.3607,348.4319 295.8368,374.6128 296.2951,375.7343" fill="none" id="api3-backto-Frontend" style="stroke:#181818;stroke-width:1;"/><path d="M167.8409,250.5255 A9,9 0 0 0 178.5919 237.4673" fill="none" style="stroke:#181818;stroke-width:1.5;"/></g><!--SRC=[fOt12i8m38RlUOgmavSUtDx0eMTVeQn1YbrIsdXHzku6PHNcHR0GwF-7Bvz6JOIZpDaNdOdLftYdW0S_NOa3UfjJ4LOB0DbQVw6sVG3QcumMDXQx8uSiaRNQITOYAL7fO84LS0vzZljDxZTv-9XMzxTgRDzpaObgbPS96k7SBRlTs_TNsVzS3l04]--></g></svg>