<svg xmlns="http://www.w3.org/2000/svg" xmlns:xlink="http://www.w3.org/1999/xlink" contentStyleType="text/css" data-diagram-type="SEQUENCE" height="875px" preserveAspectRatio="none" style="width:1005px;height:875px;background:#FFFFFF;" version="1.1" viewBox="0 0 1005 875" width="1005px" zoomAndPan="magnify"><title>Compartmentalized Backend and Frontend</title><defs/><g><text fill="#000000" font-family="sans-serif" font-size="14" font-weight="bold" lengthAdjust="spacing" textLength="300.3268" x="354.3174" y="29.9659">Compartmentalized Backend and Frontend</text><g><title>Browser</title><rect fill="#FFFFFF" height="367.0602" style="stroke:#181818;stroke-width:1;" width="10" x="295.9878" y="414.49"/></g><g><title>Browser</title><rect fill="#FFFFFF" height="20" style="stroke:#181818;stroke-width:1;" width="10" x="300.9878" y="588.0201"/></g><g><title>Browser</title><rect fill="#FFFFFF" height="20" style="stroke:#181818;stroke-width:1;" width="10" x="300.9878" y="761.5501"/></g><rect fill="none" height="286.3541" style="stroke:#000000;stroke-width:1.5;" width="989.9616" x="10" y="141.1358"/><rect fill="none" height="159.5301" style="stroke:#000000;stroke-width:1.5;" width="989.9616" x="10" y="441.49"/><rect fill="none" height="159.5301" style="stroke:#000000;stroke-width:1.5;" width="989.9616" x="10" y="615.0201"/><g><title>User</title><rect fill="#000000" fill-opacity="0.00000" height="667.4143" width="8" x="34.3089" y="124.1358"/><line style="stroke:#181818;stroke-width:0.5;stroke-dasharray:5,5;" x1="38" x2="38" y1="124.1358" y2="791.5501"/></g><g><title>Browser</title><rect fill="#000000" fill-opacity="0.00000" height="667.4143" width="8" x="296.9878" y="124.1358"/><line style="stroke:#181818;stroke-width:0.5;stroke-dasharray:5,5;" x1="300.6179" x2="300.6179" y1="124.1358" y2="791.5501"/></g><g><title>Host</title><rect fill="#000000" fill-opacity="0.00000" height="667.4143" width="8" x="763.6596" y="124.1358"/><line style="stroke:#181818;stroke-width:0.5;stroke-dasharray:5,5;" x1="767.3577" x2="767.3577" y1="124.1358" y2="791.5501"/></g><g class="participant participant-head" data-participant="u"><text fill="#000000" font-family="sans-serif" font-size="14" lengthAdjust="spacing" textLength="30.6179" x="20" y="120.0339">User</text><ellipse cx="38.3089" cy="53.5679" fill="#E2E2F0" rx="8" ry="8" style="stroke:#181818;stroke-width:0.5;"/><path d="M38.3089,61.5679 L38.3089,88.5679 M25.3089,69.5679 L51.3089,69.5679 M38.3089,88.5679 L25.3089,103.5679 M38.3089,88.5679 L51.3089,103.5679" fill="none" style="stroke:#181818;stroke-width:0.5;"/></g><g class="participant participant-tail" data-participant="u"><text fill="#000000" font-family="sans-serif" font-size="14" lengthAdjust="spacing" textLength="30.6179" x="20" y="805.5161">User</text><ellipse cx="38.3089" cy="818.1181" fill="#E2E2F0" rx="8" ry="8" style="stroke:#181818;stroke-width:0.5;"/><path d="M38.3089,826.1181 L38.3089,853.1181 M25.3089,834.1181 L51.3089,834.1181 M38.3089,853.1181 L25.3089,868.1181 M38.3089,853.1181 L51.3089,868.1181" fill="none" style="stroke:#181818;stroke-width:0.5;"/></g><g class="participant participant-head" data-participant="b"><rect fill="#E2E2F0" height="33.0679" rx="2.5" ry="2.5" style="stroke:#181818;stroke-width:0.5;" width="68.7398" x="266.6179" y="90.0679"/><text fill="#000000" font-family="sans-serif" font-size="14" lengthAdjust="spacing" textLength="54.7398" x="273.6179" y="112.0339">Browser</text></g><g class="participant participant-tail" data-participant="b"><rect fill="#E2E2F0" height="33.0679" rx="2.5" ry="2.5" style="stroke:#181818;stroke-width:0.5;" width="68.7398" x="266.6179" y="790.5501"/><text fill="#000000" font-family="sans-serif" font-size="14" lengthAdjust="spacing" textLength="54.7398" x="273.6179" y="812.5161">Browser</text></g><g class="participant participant-head" data-participant="h"><rect fill="#E2E2F0" height="33.0679" rx="2.5" ry="2.5" style="stroke:#181818;stroke-width:0.5;" width="44.6039" x="745.3577" y="90.0679"/><text fill="#000000" font-family="sans-serif" font-size="14" lengthAdjust="spacing" textLength="30.6039" x="752.3577" y="112.0339">Host</text></g><g class="participant participant-tail" data-participant="h"><rect fill="#E2E2F0" height="33.0679" rx="2.5" ry="2.5" style="stroke:#181818;stroke-width:0.5;" width="44.6039" x="745.3577" y="790.5501"/><text fill="#000000" font-family="sans-serif" font-size="14" lengthAdjust="spacing" textLength="30.6039" x="752.3577" y="812.5161">Host</text></g><g><title>Browser</title><rect fill="#FFFFFF" height="367.0602" style="stroke:#181818;stroke-width:1;" width="10" x="295.9878" y="414.49"/></g><g><title>Browser</title><rect fill="#FFFFFF" height="20" style="stroke:#181818;stroke-width:1;" width="10" x="300.9878" y="588.0201"/></g><g><title>Browser</title><rect fill="#FFFFFF" height="20" style="stroke:#181818;stroke-width:1;" width="10" x="300.9878" y="761.5501"/></g><path d="M10,141.1358 L127.3061,141.1358 L127.3061,150.8419 L117.3061,160.8419 L10,160.8419 L10,141.1358" fill="#EEEEEE" style="stroke:#000000;stroke-width:1.5;"/><rect fill="none" height="286.3541" style="stroke:#000000;stroke-width:1.5;" width="989.9616" x="10" y="141.1358"/><text fill="#000000" font-family="sans-serif" font-size="13" font-weight="bold" lengthAdjust="spacing" textLength="72.3061" x="25" y="156.0328">1. Enter Url</text><g class="message" data-participant-1="u" data-participant-2="b"><polygon fill="#181818" points="288.9878,180.5479,298.9878,184.5479,288.9878,188.5479,292.9878,184.5479" style="stroke:#181818;stroke-width:1;"/><line style="stroke:#181818;stroke-width:1;" x1="38.3089" x2="294.9878" y1="184.5479" y2="184.5479"/><text fill="#000000" font-family="sans-serif" font-size="13" lengthAdjust="spacing" textLength="52.897" x="45.3089" y="178.7389">enter url</text></g><g class="message" data-participant-1="b" data-participant-2="h"><polygon fill="#181818" points="755.6596,212.2539,765.6596,216.2539,755.6596,220.2539,759.6596,216.2539" style="stroke:#181818;stroke-width:1;"/><line style="stroke:#181818;stroke-width:1;" x1="300.9878" x2="761.6596" y1="216.2539" y2="216.2539"/><text fill="#000000" font-family="sans-serif" font-size="13" lengthAdjust="spacing" textLength="82.3161" x="307.9878" y="210.4449">HTTP request</text></g><g class="message" data-participant-1="h" data-participant-2="b"><polygon fill="#181818" points="311.9878,243.9599,301.9878,247.9599,311.9878,251.9599,307.9878,247.9599" style="stroke:#181818;stroke-width:1;"/><line style="stroke:#181818;stroke-width:1;stroke-dasharray:2,2;" x1="305.9878" x2="766.6596" y1="247.9599" y2="247.9599"/><text fill="#000000" font-family="sans-serif" font-size="13" lengthAdjust="spacing" textLength="145.9122" x="317.9878" y="242.1509">HTML with link jsbundle</text></g><g class="message" data-participant-1="b" data-participant-2="h"><polygon fill="#181818" points="755.6596,275.6659,765.6596,279.6659,755.6596,283.6659,759.6596,279.6659" style="stroke:#181818;stroke-width:1;"/><line style="stroke:#181818;stroke-width:1;" x1="300.9878" x2="761.6596" y1="279.6659" y2="279.6659"/><text fill="#000000" font-family="sans-serif" font-size="13" lengthAdjust="spacing" textLength="102.6871" x="307.9878" y="273.8569">request jsbundle</text></g><g class="message" data-participant-1="h" data-participant-2="b"><polygon fill="#181818" points="311.9878,307.3719,301.9878,311.3719,311.9878,315.3719,307.9878,311.3719" style="stroke:#181818;stroke-width:1;"/><line style="stroke:#181818;stroke-width:1;stroke-dasharray:2,2;" x1="305.9878" x2="766.6596" y1="311.3719" y2="311.3719"/><text fill="#000000" font-family="sans-serif" font-size="13" lengthAdjust="spacing" textLength="52.3251" x="317.9878" y="305.5629">jsbundle</text></g><g class="message" data-participant-1="b" data-participant-2="h"><polygon fill="#181818" points="755.6596,339.0779,765.6596,343.0779,755.6596,347.0779,759.6596,343.0779" style="stroke:#181818;stroke-width:1;"/><line style="stroke:#181818;stroke-width:1;" x1="300.9878" x2="761.6596" y1="343.0779" y2="343.0779"/><text fill="#000000" font-family="sans-serif" font-size="13" lengthAdjust="spacing" textLength="210.6782" x="307.9878" y="337.2689">request download assets and style</text></g><g class="message" data-participant-1="h" data-participant-2="b"><polygon fill="#181818" points="311.9878,370.784,301.9878,374.784,311.9878,378.784,307.9878,374.784" style="stroke:#181818;stroke-width:1;"/><line style="stroke:#181818;stroke-width:1;stroke-dasharray:2,2;" x1="305.9878" x2="766.6596" y1="374.784" y2="374.784"/><text fill="#000000" font-family="sans-serif" font-size="13" lengthAdjust="spacing" textLength="90.0901" x="317.9878" y="368.975">asset and style</text></g><g class="message" data-participant-1="b" data-participant-2="b"><line style="stroke:#181818;stroke-width:1;" x1="300.9878" x2="347.9878" y1="401.49" y2="401.49"/><line style="stroke:#181818;stroke-width:1;" x1="347.9878" x2="347.9878" y1="401.49" y2="414.49"/><line style="stroke:#181818;stroke-width:1;" x1="306.9878" x2="347.9878" y1="414.49" y2="414.49"/><polygon fill="#181818" points="316.9878,410.49,306.9878,414.49,316.9878,418.49,312.9878,414.49" style="stroke:#181818;stroke-width:1;"/><text fill="#000000" font-family="sans-serif" font-size="13" lengthAdjust="spacing" textLength="269.1913" x="312.9878" y="395.681">JS DOM manipulation to do render Full page</text></g><path d="M10,441.49 L142.7891,441.49 L142.7891,451.196 L132.7891,461.196 L10,461.196 L10,441.49" fill="#EEEEEE" style="stroke:#000000;stroke-width:1.5;"/><rect fill="none" height="159.5301" style="stroke:#000000;stroke-width:1.5;" width="989.9616" x="10" y="441.49"/><text fill="#000000" font-family="sans-serif" font-size="13" font-weight="bold" lengthAdjust="spacing" textLength="87.7891" x="25" y="456.387">2. Interaction</text><g class="message" data-participant-1="u" data-participant-2="b"><polygon fill="#181818" points="283.9878,480.902,293.9878,484.902,283.9878,488.902,287.9878,484.902" style="stroke:#181818;stroke-width:1;"/><line style="stroke:#181818;stroke-width:1;" x1="38.3089" x2="289.9878" y1="484.902" y2="484.902"/><text fill="#000000" font-family="sans-serif" font-size="13" lengthAdjust="spacing" textLength="96.6031" x="45.3089" y="479.093">user interaction</text></g><g class="message" data-participant-1="b" data-participant-2="h"><polygon fill="#181818" points="755.6596,512.608,765.6596,516.608,755.6596,520.608,759.6596,516.608" style="stroke:#181818;stroke-width:1;"/><line style="stroke:#181818;stroke-width:1;" x1="305.9878" x2="761.6596" y1="516.608" y2="516.608"/><text fill="#000000" font-family="sans-serif" font-size="13" lengthAdjust="spacing" textLength="111.9171" x="312.9878" y="510.799">XML HTTP request</text></g><g class="message" data-participant-1="h" data-participant-2="b"><polygon fill="#181818" points="316.9878,544.314,306.9878,548.314,316.9878,552.314,312.9878,548.314" style="stroke:#181818;stroke-width:1;"/><line style="stroke:#181818;stroke-width:1;stroke-dasharray:2,2;" x1="310.9878" x2="766.6596" y1="548.314" y2="548.314"/><text fill="#000000" font-family="sans-serif" font-size="13" lengthAdjust="spacing" textLength="71.0191" x="322.9878" y="542.505">HTML/JSON</text></g><g class="message" data-participant-1="b" data-participant-2="b"><line style="stroke:#181818;stroke-width:1;" x1="305.9878" x2="352.9878" y1="575.0201" y2="575.0201"/><line style="stroke:#181818;stroke-width:1;" x1="352.9878" x2="352.9878" y1="575.0201" y2="588.0201"/><line style="stroke:#181818;stroke-width:1;" x1="311.9878" x2="352.9878" y1="588.0201" y2="588.0201"/><polygon fill="#181818" points="321.9878,584.0201,311.9878,588.0201,321.9878,592.0201,317.9878,588.0201" style="stroke:#181818;stroke-width:1;"/><text fill="#000000" font-family="sans-serif" font-size="13" lengthAdjust="spacing" textLength="116.2721" x="317.9878" y="569.2111">DOM manipulation</text></g><path d="M10,615.0201 L142.7891,615.0201 L142.7891,624.7261 L132.7891,634.7261 L10,634.7261 L10,615.0201" fill="#EEEEEE" style="stroke:#000000;stroke-width:1.5;"/><rect fill="none" height="159.5301" style="stroke:#000000;stroke-width:1.5;" width="989.9616" x="10" y="615.0201"/><text fill="#000000" font-family="sans-serif" font-size="13" font-weight="bold" lengthAdjust="spacing" textLength="87.7891" x="25" y="629.9171">3. Interaction</text><g class="message" data-participant-1="u" data-participant-2="b"><polygon fill="#181818" points="283.9878,654.4321,293.9878,658.4321,283.9878,662.4321,287.9878,658.4321" style="stroke:#181818;stroke-width:1;"/><line style="stroke:#181818;stroke-width:1;" x1="38.3089" x2="289.9878" y1="658.4321" y2="658.4321"/><text fill="#000000" font-family="sans-serif" font-size="13" lengthAdjust="spacing" textLength="96.6031" x="45.3089" y="652.6231">user interaction</text></g><g class="message" data-participant-1="b" data-participant-2="h"><polygon fill="#181818" points="755.6596,686.1381,765.6596,690.1381,755.6596,694.1381,759.6596,690.1381" style="stroke:#181818;stroke-width:1;"/><line style="stroke:#181818;stroke-width:1;" x1="305.9878" x2="761.6596" y1="690.1381" y2="690.1381"/><text fill="#000000" font-family="sans-serif" font-size="13" lengthAdjust="spacing" textLength="111.9171" x="312.9878" y="684.3291">XML HTTP request</text></g><g class="message" data-participant-1="h" data-participant-2="b"><polygon fill="#181818" points="316.9878,717.8441,306.9878,721.8441,316.9878,725.8441,312.9878,721.8441" style="stroke:#181818;stroke-width:1;"/><line style="stroke:#181818;stroke-width:1;stroke-dasharray:2,2;" x1="310.9878" x2="766.6596" y1="721.8441" y2="721.8441"/><text fill="#000000" font-family="sans-serif" font-size="13" lengthAdjust="spacing" textLength="71.0191" x="322.9878" y="716.0351">HTML/JSON</text></g><g class="message" data-participant-1="b" data-participant-2="b"><line style="stroke:#181818;stroke-width:1;" x1="305.9878" x2="352.9878" y1="748.5501" y2="748.5501"/><line style="stroke:#181818;stroke-width:1;" x1="352.9878" x2="352.9878" y1="748.5501" y2="761.5501"/><line style="stroke:#181818;stroke-width:1;" x1="311.9878" x2="352.9878" y1="761.5501" y2="761.5501"/><polygon fill="#181818" points="321.9878,757.5501,311.9878,761.5501,321.9878,765.5501,317.9878,761.5501" style="stroke:#181818;stroke-width:1;"/><text fill="#000000" font-family="sans-serif" font-size="13" lengthAdjust="spacing" textLength="116.2721" x="317.9878" y="742.7411">DOM manipulation</text></g><!--SRC=[nL2xJWCn4Epz5TjHNIw4Ba8f0aGX8YHIWaIxTxRkJFp2NXF1rsDVJd2yQWeNCplUdPcpbiY5QLawXOQYLgFQwZA8voXCBGekiV6e6KbI0gwiTkX92qEev9lWCCVw80m7J6_XhQ44M3X8atIeOPlKifOkhTuYvz8qC1cF6SEQh8U783nWWCZSfmxctXxxGVLbiBI1CjiordWR7PoFu2PTJ8kyOh6OLLFHmPXWLSpQwNA_tuBFMGAnwh8eChM-WwEa5fGq1tWALJHSYPE-bmxOxi_l8cwFHbbCsKCG5BeA0hr-_Ehe8PiDhdPmlLc3HYDTL4ZI6Y2RTYMRXYVlYwWKE6n4xaY-88dKGYwrppmPmMqEcQVMd5B7N9SSi9tFnnJqZmBArMvpVpBqtSsFirmCcDx4nR-Q689t]--></g></svg>