<svg xmlns="http://www.w3.org/2000/svg" xmlns:xlink="http://www.w3.org/1999/xlink" contentStyleType="text/css" data-diagram-type="SEQUENCE" height="748px" preserveAspectRatio="none" style="width:1005px;height:748px;background:#FFFFFF;" version="1.1" viewBox="0 0 1005 748" width="1005px" zoomAndPan="magnify"><title>Early Ajax</title><defs/><g><text fill="#000000" font-family="sans-serif" font-size="14" font-weight="bold" lengthAdjust="spacing" textLength="68.6277" x="470.1669" y="29.9659">Early Ajax</text><g><title>Browser</title><rect fill="#FFFFFF" height="367.0602" style="stroke:#181818;stroke-width:1;" width="10" x="295.9878" y="287.6659"/></g><g><title>Browser</title><rect fill="#FFFFFF" height="20" style="stroke:#181818;stroke-width:1;" width="10" x="300.9878" y="461.196"/></g><g><title>Browser</title><rect fill="#FFFFFF" height="20" style="stroke:#181818;stroke-width:1;" width="10" x="300.9878" y="634.7261"/></g><rect fill="none" height="159.5301" style="stroke:#000000;stroke-width:1.5;" width="989.9616" x="10" y="141.1358"/><rect fill="none" height="159.5301" style="stroke:#000000;stroke-width:1.5;" width="989.9616" x="10" y="314.6659"/><rect fill="none" height="159.5301" style="stroke:#000000;stroke-width:1.5;" width="989.9616" x="10" y="488.196"/><g><title>User</title><rect fill="#000000" fill-opacity="0.00000" height="540.5902" width="8" x="34.3089" y="124.1358"/><line style="stroke:#181818;stroke-width:0.5;stroke-dasharray:5,5;" x1="38" x2="38" y1="124.1358" y2="664.7261"/></g><g><title>Browser</title><rect fill="#000000" fill-opacity="0.00000" height="540.5902" width="8" x="296.9878" y="124.1358"/><line style="stroke:#181818;stroke-width:0.5;stroke-dasharray:5,5;" x1="300.6179" x2="300.6179" y1="124.1358" y2="664.7261"/></g><g><title>Host</title><rect fill="#000000" fill-opacity="0.00000" height="540.5902" width="8" x="763.6596" y="124.1358"/><line style="stroke:#181818;stroke-width:0.5;stroke-dasharray:5,5;" x1="767.3577" x2="767.3577" y1="124.1358" y2="664.7261"/></g><g class="participant participant-head" data-participant="u"><text fill="#000000" font-family="sans-serif" font-size="14" lengthAdjust="spacing" textLength="30.6179" x="20" y="120.0339">User</text><ellipse cx="38.3089" cy="53.5679" fill="#E2E2F0" rx="8" ry="8" style="stroke:#181818;stroke-width:0.5;"/><path d="M38.3089,61.5679 L38.3089,88.5679 M25.3089,69.5679 L51.3089,69.5679 M38.3089,88.5679 L25.3089,103.5679 M38.3089,88.5679 L51.3089,103.5679" fill="none" style="stroke:#181818;stroke-width:0.5;"/></g><g class="participant participant-tail" data-participant="u"><text fill="#000000" font-family="sans-serif" font-size="14" lengthAdjust="spacing" textLength="30.6179" x="20" y="678.692">User</text><ellipse cx="38.3089" cy="691.294" fill="#E2E2F0" rx="8" ry="8" style="stroke:#181818;stroke-width:0.5;"/><path d="M38.3089,699.294 L38.3089,726.294 M25.3089,707.294 L51.3089,707.294 M38.3089,726.294 L25.3089,741.294 M38.3089,726.294 L51.3089,741.294" fill="none" style="stroke:#181818;stroke-width:0.5;"/></g><g class="participant participant-head" data-participant="b"><rect fill="#E2E2F0" height="33.0679" rx="2.5" ry="2.5" style="stroke:#181818;stroke-width:0.5;" width="68.7398" x="266.6179" y="90.0679"/><text fill="#000000" font-family="sans-serif" font-size="14" lengthAdjust="spacing" textLength="54.7398" x="273.6179" y="112.0339">Browser</text></g><g class="participant participant-tail" data-participant="b"><rect fill="#E2E2F0" height="33.0679" rx="2.5" ry="2.5" style="stroke:#181818;stroke-width:0.5;" width="68.7398" x="266.6179" y="663.7261"/><text fill="#000000" font-family="sans-serif" font-size="14" lengthAdjust="spacing" textLength="54.7398" x="273.6179" y="685.692">Browser</text></g><g class="participant participant-head" data-participant="h"><rect fill="#E2E2F0" height="33.0679" rx="2.5" ry="2.5" style="stroke:#181818;stroke-width:0.5;" width="44.6039" x="745.3577" y="90.0679"/><text fill="#000000" font-family="sans-serif" font-size="14" lengthAdjust="spacing" textLength="30.6039" x="752.3577" y="112.0339">Host</text></g><g class="participant participant-tail" data-participant="h"><rect fill="#E2E2F0" height="33.0679" rx="2.5" ry="2.5" style="stroke:#181818;stroke-width:0.5;" width="44.6039" x="745.3577" y="663.7261"/><text fill="#000000" font-family="sans-serif" font-size="14" lengthAdjust="spacing" textLength="30.6039" x="752.3577" y="685.692">Host</text></g><g><title>Browser</title><rect fill="#FFFFFF" height="367.0602" style="stroke:#181818;stroke-width:1;" width="10" x="295.9878" y="287.6659"/></g><g><title>Browser</title><rect fill="#FFFFFF" height="20" style="stroke:#181818;stroke-width:1;" width="10" x="300.9878" y="461.196"/></g><g><title>Browser</title><rect fill="#FFFFFF" height="20" style="stroke:#181818;stroke-width:1;" width="10" x="300.9878" y="634.7261"/></g><path d="M10,141.1358 L127.3061,141.1358 L127.3061,150.8419 L117.3061,160.8419 L10,160.8419 L10,141.1358" fill="#EEEEEE" style="stroke:#000000;stroke-width:1.5;"/><rect fill="none" height="159.5301" style="stroke:#000000;stroke-width:1.5;" width="989.9616" x="10" y="141.1358"/><text fill="#000000" font-family="sans-serif" font-size="13" font-weight="bold" lengthAdjust="spacing" textLength="72.3061" x="25" y="156.0328">1. Enter Url</text><g class="message" data-participant-1="u" data-participant-2="b"><polygon fill="#181818" points="288.9878,180.5479,298.9878,184.5479,288.9878,188.5479,292.9878,184.5479" style="stroke:#181818;stroke-width:1;"/><line style="stroke:#181818;stroke-width:1;" x1="38.3089" x2="294.9878" y1="184.5479" y2="184.5479"/><text fill="#000000" font-family="sans-serif" font-size="13" lengthAdjust="spacing" textLength="52.897" x="45.3089" y="178.7389">enter url</text></g><g class="message" data-participant-1="b" data-participant-2="h"><polygon fill="#181818" points="755.6596,212.2539,765.6596,216.2539,755.6596,220.2539,759.6596,216.2539" style="stroke:#181818;stroke-width:1;"/><line style="stroke:#181818;stroke-width:1;" x1="300.9878" x2="761.6596" y1="216.2539" y2="216.2539"/><text fill="#000000" font-family="sans-serif" font-size="13" lengthAdjust="spacing" textLength="82.3161" x="307.9878" y="210.4449">HTTP request</text></g><g class="message" data-participant-1="h" data-participant-2="b"><polygon fill="#181818" points="311.9878,243.9599,301.9878,247.9599,311.9878,251.9599,307.9878,247.9599" style="stroke:#181818;stroke-width:1;"/><line style="stroke:#181818;stroke-width:1;stroke-dasharray:2,2;" x1="305.9878" x2="766.6596" y1="247.9599" y2="247.9599"/><text fill="#000000" font-family="sans-serif" font-size="13" lengthAdjust="spacing" textLength="60.3331" x="317.9878" y="242.1509">Full HTML</text></g><g class="message" data-participant-1="b" data-participant-2="b"><line style="stroke:#181818;stroke-width:1;" x1="300.9878" x2="347.9878" y1="274.6659" y2="274.6659"/><line style="stroke:#181818;stroke-width:1;" x1="347.9878" x2="347.9878" y1="274.6659" y2="287.6659"/><line style="stroke:#181818;stroke-width:1;" x1="306.9878" x2="347.9878" y1="287.6659" y2="287.6659"/><polygon fill="#181818" points="316.9878,283.6659,306.9878,287.6659,316.9878,291.6659,312.9878,287.6659" style="stroke:#181818;stroke-width:1;"/><text fill="#000000" font-family="sans-serif" font-size="13" lengthAdjust="spacing" textLength="105.1441" x="312.9878" y="268.8569">render Full HTML</text></g><path d="M10,314.6659 L142.7891,314.6659 L142.7891,324.3719 L132.7891,334.3719 L10,334.3719 L10,314.6659" fill="#EEEEEE" style="stroke:#000000;stroke-width:1.5;"/><rect fill="none" height="159.5301" style="stroke:#000000;stroke-width:1.5;" width="989.9616" x="10" y="314.6659"/><text fill="#000000" font-family="sans-serif" font-size="13" font-weight="bold" lengthAdjust="spacing" textLength="87.7891" x="25" y="329.5629">2. Interaction</text><g class="message" data-participant-1="u" data-participant-2="b"><polygon fill="#181818" points="283.9878,354.0779,293.9878,358.0779,283.9878,362.0779,287.9878,358.0779" style="stroke:#181818;stroke-width:1;"/><line style="stroke:#181818;stroke-width:1;" x1="38.3089" x2="289.9878" y1="358.0779" y2="358.0779"/><text fill="#000000" font-family="sans-serif" font-size="13" lengthAdjust="spacing" textLength="96.6031" x="45.3089" y="352.2689">user interaction</text></g><g class="message" data-participant-1="b" data-participant-2="h"><polygon fill="#181818" points="755.6596,385.784,765.6596,389.784,755.6596,393.784,759.6596,389.784" style="stroke:#181818;stroke-width:1;"/><line style="stroke:#181818;stroke-width:1;" x1="305.9878" x2="761.6596" y1="389.784" y2="389.784"/><text fill="#000000" font-family="sans-serif" font-size="13" lengthAdjust="spacing" textLength="111.9171" x="312.9878" y="383.975">XML HTTP request</text></g><g class="message" data-participant-1="h" data-participant-2="b"><polygon fill="#181818" points="316.9878,417.49,306.9878,421.49,316.9878,425.49,312.9878,421.49" style="stroke:#181818;stroke-width:1;"/><line style="stroke:#181818;stroke-width:1;stroke-dasharray:2,2;" x1="310.9878" x2="766.6596" y1="421.49" y2="421.49"/><text fill="#000000" font-family="sans-serif" font-size="13" lengthAdjust="spacing" textLength="71.0191" x="322.9878" y="415.681">HTML/JSON</text></g><g class="message" data-participant-1="b" data-participant-2="b"><line style="stroke:#181818;stroke-width:1;" x1="305.9878" x2="352.9878" y1="448.196" y2="448.196"/><line style="stroke:#181818;stroke-width:1;" x1="352.9878" x2="352.9878" y1="448.196" y2="461.196"/><line style="stroke:#181818;stroke-width:1;" x1="311.9878" x2="352.9878" y1="461.196" y2="461.196"/><polygon fill="#181818" points="321.9878,457.196,311.9878,461.196,321.9878,465.196,317.9878,461.196" style="stroke:#181818;stroke-width:1;"/><text fill="#000000" font-family="sans-serif" font-size="13" lengthAdjust="spacing" textLength="116.2721" x="317.9878" y="442.387">DOM manipulation</text></g><path d="M10,488.196 L142.7891,488.196 L142.7891,497.902 L132.7891,507.902 L10,507.902 L10,488.196" fill="#EEEEEE" style="stroke:#000000;stroke-width:1.5;"/><rect fill="none" height="159.5301" style="stroke:#000000;stroke-width:1.5;" width="989.9616" x="10" y="488.196"/><text fill="#000000" font-family="sans-serif" font-size="13" font-weight="bold" lengthAdjust="spacing" textLength="87.7891" x="25" y="503.093">3. Interaction</text><g class="message" data-participant-1="u" data-participant-2="b"><polygon fill="#181818" points="283.9878,527.608,293.9878,531.608,283.9878,535.608,287.9878,531.608" style="stroke:#181818;stroke-width:1;"/><line style="stroke:#181818;stroke-width:1;" x1="38.3089" x2="289.9878" y1="531.608" y2="531.608"/><text fill="#000000" font-family="sans-serif" font-size="13" lengthAdjust="spacing" textLength="96.6031" x="45.3089" y="525.799">user interaction</text></g><g class="message" data-participant-1="b" data-participant-2="h"><polygon fill="#181818" points="755.6596,559.314,765.6596,563.314,755.6596,567.314,759.6596,563.314" style="stroke:#181818;stroke-width:1;"/><line style="stroke:#181818;stroke-width:1;" x1="305.9878" x2="761.6596" y1="563.314" y2="563.314"/><text fill="#000000" font-family="sans-serif" font-size="13" lengthAdjust="spacing" textLength="111.9171" x="312.9878" y="557.505">XML HTTP request</text></g><g class="message" data-participant-1="h" data-participant-2="b"><polygon fill="#181818" points="316.9878,591.0201,306.9878,595.0201,316.9878,599.0201,312.9878,595.0201" style="stroke:#181818;stroke-width:1;"/><line style="stroke:#181818;stroke-width:1;stroke-dasharray:2,2;" x1="310.9878" x2="766.6596" y1="595.0201" y2="595.0201"/><text fill="#000000" font-family="sans-serif" font-size="13" lengthAdjust="spacing" textLength="71.0191" x="322.9878" y="589.2111">HTML/JSON</text></g><g class="message" data-participant-1="b" data-participant-2="b"><line style="stroke:#181818;stroke-width:1;" x1="305.9878" x2="352.9878" y1="621.7261" y2="621.7261"/><line style="stroke:#181818;stroke-width:1;" x1="352.9878" x2="352.9878" y1="621.7261" y2="634.7261"/><line style="stroke:#181818;stroke-width:1;" x1="311.9878" x2="352.9878" y1="634.7261" y2="634.7261"/><polygon fill="#181818" points="321.9878,630.7261,311.9878,634.7261,321.9878,638.7261,317.9878,634.7261" style="stroke:#181818;stroke-width:1;"/><text fill="#000000" font-family="sans-serif" font-size="13" lengthAdjust="spacing" textLength="116.2721" x="317.9878" y="615.9171">DOM manipulation</text></g><!--SRC=[nOxBJiCm44Nt_ehPiKfIoYv2bK0K1TJGIAGIsqbY9MuTszXZ7d-FdHRr8VOivpxctAk1oBWyoun4HNwKQQl7pF5tprNBaqvWRt5a94XoMAALtt2tnI_cTa8P31PKQ4cqmeHwXLqdL0_psOmnR4bRs3Xk0HruPeuvkBVwys0qPqQX7KLrOAotsXkuJc6fA4GtLZAVB9gSJwSFPvCiXhoewmfitEk8DRT9CkIFNaeewd8L4qrkkUf2uwY6PU83YGTsi7v9ynIUukleQhLd-JXIdAWJygrSmH_O-3jxVbs_xB4Fwn96LC9uYLFt0jln4-6muUO_DvmTFm00]--></g></svg>