<svg xmlns="http://www.w3.org/2000/svg" xmlns:xlink="http://www.w3.org/1999/xlink" contentStyleType="text/css" data-diagram-type="DESCRIPTION" height="450px" preserveAspectRatio="none" style="width:335px;height:450px;background:#FFFFFF;" version="1.1" viewBox="0 0 335 450" width="335px" zoomAndPan="magnify"><title>Meta-Frameworks Approach</title><defs/><g><g class="title" data-source-line="1"><text fill="#000000" font-family="sans-serif" font-size="14" font-weight="bold" lengthAdjust="spacing" textLength="198.2812" x="61.3594" y="24.9659">Meta-Frameworks Approach</text></g><!--cluster Backend--><g class="cluster" data-entity="Backend" data-source-line="2" data-uid="ent0002" id="cluster_Backend"><path d="M73.5,46.6699 L134.4058,46.6699 A3.75,3.75 0 0 1 136.9058,49.1699 L143.9058,71.7378 L260.5,71.7378 A2.5,2.5 0 0 1 263,74.2378 L263,216.1699 A2.5,2.5 0 0 1 260.5,218.6699 L73.5,218.6699 A2.5,2.5 0 0 1 71,216.1699 L71,49.1699 A2.5,2.5 0 0 1 73.5,46.6699" fill="none" style="stroke:#000000;stroke-width:1.5;"/><line style="stroke:#000000;stroke-width:1.5;" x1="71" x2="143.9058" y1="71.7378" y2="71.7378"/><text fill="#000000" font-family="sans-serif" font-size="14" font-weight="bold" lengthAdjust="spacing" textLength="59.9058" x="75" y="63.6358">Backend</text></g><!--cluster Rendering Logic--><g class="cluster" data-entity="Rendering Logic" data-source-line="3" data-uid="ent0003" id="cluster_Rendering Logic"><rect fill="none" height="104" rx="2.5" ry="2.5" style="stroke:#181818;stroke-width:1;" width="160" x="87" y="84.6699"/><rect fill="none" height="10" style="stroke:#181818;stroke-width:1;" width="15" x="227" y="89.6699"/><rect fill="none" height="2" style="stroke:#181818;stroke-width:1;" width="4" x="225" y="91.6699"/><rect fill="none" height="2" style="stroke:#181818;stroke-width:1;" width="4" x="225" y="95.6699"/><text fill="#000000" font-family="sans-serif" font-size="14" font-weight="bold" lengthAdjust="spacing" textLength="112.7136" x="110.6432" y="112.6358">Rendering Logic</text></g><!--cluster Frontend--><g class="cluster" data-entity="Frontend" data-source-line="9" data-uid="ent0005" id="cluster_Frontend"><path d="M8.5,271.6699 L73.6758,271.6699 A3.75,3.75 0 0 1 76.1758,274.1699 L83.1758,296.7378 L325.5,296.7378 A2.5,2.5 0 0 1 328,299.2378 L328,441.1699 A2.5,2.5 0 0 1 325.5,443.6699 L8.5,443.6699 A2.5,2.5 0 0 1 6,441.1699 L6,274.1699 A2.5,2.5 0 0 1 8.5,271.6699" fill="none" style="stroke:#000000;stroke-width:1.5;"/><line style="stroke:#000000;stroke-width:1.5;" x1="6" x2="83.1758" y1="296.7378" y2="296.7378"/><text fill="#000000" font-family="sans-serif" font-size="14" font-weight="bold" lengthAdjust="spacing" textLength="64.1758" x="10" y="288.6358">Frontend</text></g><!--cluster Rendering Logic + Full DOM engine--><g class="cluster" data-entity="Rendering Logic . Full DOM engine" data-source-line="10" data-uid="ent0006" id="cluster_Rendering Logic . Full DOM engine"><rect fill="none" height="104" rx="2.5" ry="2.5" style="stroke:#181818;stroke-width:1;" width="290" x="22" y="323.6699"/><rect fill="none" height="10" style="stroke:#181818;stroke-width:1;" width="15" x="292" y="328.6699"/><rect fill="none" height="2" style="stroke:#181818;stroke-width:1;" width="4" x="290" y="330.6699"/><rect fill="none" height="2" style="stroke:#181818;stroke-width:1;" width="4" x="290" y="334.6699"/><text fill="#000000" font-family="sans-serif" font-size="14" font-weight="bold" lengthAdjust="spacing" textLength="242.885" x="45.5575" y="351.6358">Rendering Logic + Full DOM engine</text></g><g class="entity" data-entity="fport1" data-source-line="4" data-uid="ent0004" id="entity_fport1"><text fill="#000000" font-family="sans-serif" font-size="14" lengthAdjust="spacing" textLength="3.64" x="165.18" y="209.6358">&#160;</text><rect fill="#F1F1F1" height="12" style="stroke:#181818;stroke-width:1.5;" width="12" x="161" y="182.6699"/></g><g class="entity" data-entity="bport1" data-source-line="11" data-uid="ent0007" id="entity_bport1"><text fill="#000000" font-family="sans-serif" font-size="14" lengthAdjust="spacing" textLength="3.64" x="165.18" y="301.5679">&#160;</text><rect fill="#F1F1F1" height="12" style="stroke:#181818;stroke-width:1.5;" width="12" x="161" y="317.6699"/></g><!--link fport1 to bport1--><g class="link" data-entity-1="fport1" data-entity-2="bport1" data-source-line="15" data-uid="lnk8" id="link_fport1_bport1"><path d="M167,195.0499 C167,216.5299 167,296.0299 167,317.3699" fill="none" id="fport1-bport1" style="stroke:#181818;stroke-width:1;"/></g><!--SRC=[ZOsn3i8m34JtVCMfAyh09u1G9Yea_Y044wAcTfIcOa3zTrAW39qu3vPzftibb4XegLXjiktf8RaRi4ifYtLtbQphh2ViwoQ-ugbGvQHFmiG5pRb-AGVsE8eFhlacPYN9HSQQgMC7tEPx-tOdDIdrwpPPkFnJZWtC62CEfnR4FZ2jSGlhic9zsD1QBvPw0G00]--></g></svg>