<svg xmlns="http://www.w3.org/2000/svg" xmlns:xlink="http://www.w3.org/1999/xlink" contentStyleType="text/css" data-diagram-type="DESCRIPTION" height="376px" preserveAspectRatio="none" style="width:359px;height:376px;background:#FFFFFF;" version="1.1" viewBox="0 0 359 376" width="359px" zoomAndPan="magnify"><title>Server-driven UI Approach</title><defs/><g><g class="title" data-source-line="1"><text fill="#000000" font-family="sans-serif" font-size="14" font-weight="bold" lengthAdjust="spacing" textLength="184.5753" x="80.4599" y="24.9659">Server-driven UI Approach</text></g><!--cluster Backend--><g class="cluster" data-entity="Backend" data-source-line="2" data-uid="ent0002" id="cluster_Backend"><path d="M11.5,46.6699 L72.4058,46.6699 A3.75,3.75 0 0 1 74.9058,49.1699 L81.9058,71.7378 L237.5,71.7378 A2.5,2.5 0 0 1 240,74.2378 L240,163.2399 A2.5,2.5 0 0 1 237.5,165.7399 L11.5,165.7399 A2.5,2.5 0 0 1 9,163.2399 L9,49.1699 A2.5,2.5 0 0 1 11.5,46.6699" fill="none" style="stroke:#000000;stroke-width:1.5;"/><line style="stroke:#000000;stroke-width:1.5;" x1="9" x2="81.9058" y1="71.7378" y2="71.7378"/><text fill="#000000" font-family="sans-serif" font-size="14" font-weight="bold" lengthAdjust="spacing" textLength="59.9058" x="13" y="63.6358">Backend</text></g><!--cluster Frontend--><g class="cluster" data-entity="Frontend" data-source-line="6" data-uid="ent0004" id="cluster_Frontend"><path d="M8.5,250.7399 L73.6758,250.7399 A3.75,3.75 0 0 1 76.1758,253.2399 L83.1758,275.8078 L237.5,275.8078 A2.5,2.5 0 0 1 240,278.3078 L240,367.3099 A2.5,2.5 0 0 1 237.5,369.8099 L8.5,369.8099 A2.5,2.5 0 0 1 6,367.3099 L6,253.2399 A2.5,2.5 0 0 1 8.5,250.7399" fill="none" style="stroke:#000000;stroke-width:1.5;"/><line style="stroke:#000000;stroke-width:1.5;" x1="6" x2="83.1758" y1="275.8078" y2="275.8078"/><text fill="#000000" font-family="sans-serif" font-size="14" font-weight="bold" lengthAdjust="spacing" textLength="64.1758" x="10" y="267.7058">Frontend</text></g><!--entity Templating Engine--><g class="entity" data-entity="Templating Engine" data-source-line="3" data-uid="ent0003" id="entity_Templating Engine"><rect fill="#F1F1F1" height="49.0679" rx="2.5" ry="2.5" style="stroke:#181818;stroke-width:0.5;" width="163.6195" x="33.19" y="92.6699"/><rect fill="#F1F1F1" height="10" style="stroke:#181818;stroke-width:0.5;" width="15" x="176.8095" y="97.6699"/><rect fill="#F1F1F1" height="2" style="stroke:#181818;stroke-width:0.5;" width="4" x="174.8095" y="99.6699"/><rect fill="#F1F1F1" height="2" style="stroke:#181818;stroke-width:0.5;" width="4" x="174.8095" y="103.6699"/><text fill="#000000" font-family="sans-serif" font-size="14" lengthAdjust="spacing" textLength="123.6195" x="48.19" y="127.6358">Templating Engine</text></g><!--entity Hypermedia library--><g class="entity" data-entity="Hypermedia library" data-source-line="7" data-uid="ent0005" id="entity_Hypermedia library"><rect fill="#F1F1F1" height="49.0679" rx="2.5" ry="2.5" style="stroke:#181818;stroke-width:0.5;" width="166.8955" x="29.55" y="296.7399"/><rect fill="#F1F1F1" height="10" style="stroke:#181818;stroke-width:0.5;" width="15" x="176.4455" y="301.7399"/><rect fill="#F1F1F1" height="2" style="stroke:#181818;stroke-width:0.5;" width="4" x="174.4455" y="303.7399"/><rect fill="#F1F1F1" height="2" style="stroke:#181818;stroke-width:0.5;" width="4" x="174.4455" y="307.7399"/><text fill="#000000" font-family="sans-serif" font-size="14" lengthAdjust="spacing" textLength="126.8955" x="44.55" y="331.7058">Hypermedia library</text></g><!--link Backend to Frontend--><g class="link" data-entity-1="Backend" data-entity-2="Frontend" data-source-line="10" data-uid="lnk6" id="link_Backend_Frontend"><path d="M232,166.627 C232,171.9391 232,177.5202 232,183.2807 C232,194.8016 232,207.0399 232,219.2774 C232,225.3961 232,231.5147 232,237.5433 C232,240.5576 232,243.5494 232,246.5075 C232,247.247 232,247.9844 232,248.7196 C232,249.0871 232,249.4541 232,249.8205 C232,250.0037 232,269.2547 232,269.4376" fill="none" id="Backend-to-Frontend" style="stroke:#181818;stroke-width:1;"/><polygon fill="#181818" points="232,275.4376,236,266.4376,232,270.4376,228,266.4376,232,275.4376" style="stroke:#181818;stroke-width:1;"/><text fill="#000000" font-family="sans-serif" font-size="13" lengthAdjust="spacing" textLength="113.6591" x="235.418" y="204.6369">&lt;ul&gt;&lt;li&gt;Item 1&lt;/li&gt;</text><text fill="#000000" font-family="sans-serif" font-size="13" lengthAdjust="spacing" textLength="118.4951" x="233" y="222.3429">&lt;li&gt;Item 2&lt;/li&gt;&lt;/ul&gt;</text></g><!--SRC=[ROt12i8m44Jl-Oebzr3qA26WeDYpUlCIswKk9fkmn48H_zrGi5wSomp3FAPG2GWdb175z48ZCbnQsEOioNTtbNtty0F2hZfo3oy5LLsAEJ5o0Nt6c8Cln0FiUI16hTvgmGwIkFpbZbD6YTYJXq0tyJBDuFV76FU3Dw3jCpWRoBK58wniK-ELbs8z5xQf8_q1]--></g></svg>